<svg width="90" height="90" viewBox="0 0 90 90" fill="none" xmlns="http://www.w3.org/2000/svg">
<rect width="90" height="90" rx="5" fill="#FE8E05"/>
<rect x="0.5" y="0.5" width="89" height="89" rx="4.5" stroke="white" stroke-opacity="0.5"/>
<path d="M40.3252 74.7847C40.9375 74.7847 41.4725 74.5991 41.9302 74.228C42.3879 73.8569 42.6414 73.3931 42.6909 72.8364H44.3145C44.2835 73.4116 44.0856 73.959 43.7207 74.4785C43.3558 74.998 42.8672 75.4124 42.2549 75.7217C41.6488 76.0309 41.0055 76.1855 40.3252 76.1855C38.9583 76.1855 37.8698 75.731 37.0596 74.8218C36.2555 73.9064 35.8535 72.6571 35.8535 71.0737V70.7861C35.8535 69.8089 36.0329 68.9399 36.3916 68.1792C36.7503 67.4185 37.2637 66.8278 37.9316 66.4072C38.6058 65.9867 39.4006 65.7764 40.3159 65.7764C41.4416 65.7764 42.3755 66.1134 43.1177 66.7876C43.866 67.4618 44.265 68.3369 44.3145 69.4131H42.6909C42.6414 68.7637 42.394 68.2318 41.9487 67.8174C41.5096 67.3968 40.9653 67.1865 40.3159 67.1865C39.4438 67.1865 38.7666 67.502 38.2842 68.1328C37.8079 68.7575 37.5698 69.6636 37.5698 70.8511V71.1758C37.5698 72.3324 37.8079 73.223 38.2842 73.8477C38.7604 74.4723 39.4408 74.7847 40.3252 74.7847ZM50.6509 66.5371C51.9126 66.5371 52.9207 66.9608 53.6753 67.8081C54.436 68.6493 54.8164 69.7594 54.8164 71.1387V71.2964C54.8164 72.2427 54.634 73.09 54.269 73.8384C53.9041 74.5806 53.3784 75.1589 52.6919 75.5732C52.0116 75.9814 51.2261 76.1855 50.3354 76.1855C48.9871 76.1855 47.9017 75.7371 47.0791 74.8403C46.2565 73.9373 45.8452 72.7282 45.8452 71.2129V70.3779C45.8452 68.2689 46.2349 66.5928 47.0142 65.3496C47.7996 64.1064 48.9562 63.3488 50.4839 63.0767C51.3498 62.922 51.9342 62.7334 52.2373 62.5107C52.5404 62.2881 52.6919 61.9819 52.6919 61.5923H54.1021C54.1021 62.3654 53.9258 62.9684 53.5732 63.4014C53.2269 63.8343 52.6702 64.1405 51.9033 64.3198L50.623 64.6074C49.6025 64.8486 48.8356 65.2568 48.3223 65.832C47.8151 66.401 47.4842 67.1618 47.3296 68.1143C48.2388 67.0628 49.3459 66.5371 50.6509 66.5371ZM50.3169 67.9473C49.4757 67.9473 48.8078 68.2318 48.313 68.8008C47.8182 69.3636 47.5708 70.146 47.5708 71.1479V71.2964C47.5708 72.3726 47.8182 73.2261 48.313 73.8569C48.814 74.4816 49.4881 74.7939 50.3354 74.7939C51.189 74.7939 51.8631 74.4785 52.3579 73.8477C52.8527 73.2168 53.1001 72.2952 53.1001 71.083C53.1001 70.1367 52.8496 69.3791 52.3486 68.8101C51.8538 68.2349 51.1766 67.9473 50.3169 67.9473Z" fill="#621402"/>
<path d="M36.6016 21.0312H31.8359L30.7656 24H29.2188L33.5625 12.625H34.875L39.2266 24H37.6875L36.6016 21.0312ZM32.2891 19.7969H36.1562L34.2188 14.4766L32.2891 19.7969ZM49.4453 24H47.9375V13.8594H42.3281V24H40.8281V12.625H49.4453V24ZM53.6797 19.5469V24H52.1797V12.625H56.375C57.6198 12.625 58.5938 12.9427 59.2969 13.5781C60.0052 14.2135 60.3594 15.0547 60.3594 16.1016C60.3594 17.2057 60.013 18.0573 59.3203 18.6562C58.6328 19.25 57.6458 19.5469 56.3594 19.5469H53.6797ZM53.6797 18.3203H56.375C57.1771 18.3203 57.7917 18.1328 58.2188 17.7578C58.6458 17.3776 58.8594 16.8307 58.8594 16.1172C58.8594 15.4401 58.6458 14.8984 58.2188 14.4922C57.7917 14.0859 57.2057 13.875 56.4609 13.8594H53.6797V18.3203Z" fill="#621402"/>
<path d="M44.1865 56H29.3037V52.7773L36.1592 45.5703C37.8486 43.6465 38.6934 42.1182 38.6934 40.9854C38.6934 40.0674 38.4932 39.3691 38.0928 38.8906C37.6924 38.4121 37.1113 38.1729 36.3496 38.1729C35.5977 38.1729 34.9873 38.4951 34.5186 39.1396C34.0498 39.7744 33.8154 40.5703 33.8154 41.5273H28.8643C28.8643 40.2188 29.1914 39.0127 29.8457 37.9092C30.5 36.7959 31.4082 35.9268 32.5703 35.3018C33.7324 34.6768 35.0312 34.3643 36.4668 34.3643C38.7715 34.3643 40.5439 34.8965 41.7842 35.9609C43.0342 37.0254 43.6592 38.5537 43.6592 40.5459C43.6592 41.3857 43.5029 42.2061 43.1904 43.0068C42.8779 43.7979 42.3896 44.6328 41.7256 45.5117C41.0713 46.3809 40.0117 47.5479 38.5469 49.0127L35.793 52.1914H44.1865V56ZM61.0615 40.3701C61.0615 41.4053 60.8027 42.3184 60.2852 43.1094C59.7773 43.9004 59.0742 44.5352 58.1758 45.0137C59.1914 45.5117 59.9971 46.1953 60.5928 47.0645C61.1885 47.9238 61.4863 48.9443 61.4863 50.126C61.4863 52.0303 60.8271 53.5342 59.5088 54.6377C58.2002 55.7412 56.3936 56.293 54.0889 56.293C51.7744 56.293 49.9482 55.7412 48.6104 54.6377C47.2725 53.5244 46.6035 52.0205 46.6035 50.126C46.6035 48.9834 46.8965 47.9727 47.4824 47.0938C48.0684 46.2148 48.8984 45.5215 49.9727 45.0137C49.0645 44.5352 48.3516 43.9004 47.834 43.1094C47.3164 42.3184 47.0576 41.4053 47.0576 40.3701C47.0576 38.5146 47.6875 37.0498 48.9473 35.9756C50.207 34.9014 51.9062 34.3643 54.0449 34.3643C56.2031 34.3643 57.9121 34.9014 59.1719 35.9756C60.4316 37.0498 61.0615 38.5146 61.0615 40.3701ZM56.5352 49.7305C56.5352 48.8516 56.3057 48.1777 55.8467 47.709C55.3975 47.2305 54.8018 46.9912 54.0596 46.9912C53.3174 46.9912 52.7168 47.2305 52.2578 47.709C51.7988 48.1777 51.5693 48.8516 51.5693 49.7305C51.5693 50.5801 51.7988 51.2539 52.2578 51.752C52.7266 52.2402 53.3369 52.4844 54.0889 52.4844C54.8213 52.4844 55.4121 52.2402 55.8613 51.752C56.3105 51.2637 56.5352 50.5898 56.5352 49.7305ZM54.0449 38.1729C53.3809 38.1729 52.873 38.3926 52.5215 38.832C52.1797 39.2617 52.0088 39.8623 52.0088 40.6338C52.0088 41.3955 52.1846 42.0107 52.5361 42.4795C52.8877 42.9482 53.4053 43.1826 54.0889 43.1826C54.7627 43.1826 55.2656 42.9482 55.5977 42.4795C55.9395 42.0107 56.1104 41.3955 56.1104 40.6338C56.1104 39.8721 55.9346 39.2715 55.583 38.832C55.2412 38.3926 54.7285 38.1729 54.0449 38.1729Z" fill="#621402"/>
</svg>
