<svg width="90" height="90" viewBox="0 0 90 90" fill="none" xmlns="http://www.w3.org/2000/svg">
<path d="M44.5093 76H42.793V67.3813H38.1729V76H36.4473V65.9619H44.5093V76ZM55.4658 76H53.7495V71.7139H49.1387V76H47.4131V65.9619H49.1387V70.313H53.7495V65.9619H55.4658V76Z" fill="white"/>
<path d="M36.6016 21.0312H31.8359L30.7656 24H29.2188L33.5625 12.625H34.875L39.2266 24H37.6875L36.6016 21.0312ZM32.2891 19.7969H36.1562L34.2188 14.4766L32.2891 19.7969ZM49.4453 24H47.9375V13.8594H42.3281V24H40.8281V12.625H49.4453V24ZM53.6797 19.5469V24H52.1797V12.625H56.375C57.6198 12.625 58.5938 12.9427 59.2969 13.5781C60.0052 14.2135 60.3594 15.0547 60.3594 16.1016C60.3594 17.2057 60.013 18.0573 59.3203 18.6562C58.6328 19.25 57.6458 19.5469 56.3594 19.5469H53.6797ZM53.6797 18.3203H56.375C57.1771 18.3203 57.7917 18.1328 58.2188 17.7578C58.6458 17.3776 58.8594 16.8307 58.8594 16.1172C58.8594 15.4401 58.6458 14.8984 58.2188 14.4922C57.7917 14.0859 57.2057 13.875 56.4609 13.8594H53.6797V18.3203Z" fill="white"/>
<path d="M33.8154 43.2705H36.1445C37.9902 43.2705 38.9131 42.3672 38.9131 40.5605C38.9131 39.8574 38.6934 39.2861 38.2539 38.8467C37.8145 38.3975 37.1943 38.1729 36.3936 38.1729C35.7393 38.1729 35.168 38.3633 34.6797 38.7441C34.2012 39.125 33.9619 39.5986 33.9619 40.165H29.0254C29.0254 39.042 29.3379 38.041 29.9629 37.1621C30.5879 36.2832 31.4521 35.5996 32.5557 35.1113C33.6689 34.6133 34.8896 34.3643 36.2178 34.3643C38.5908 34.3643 40.4561 34.9062 41.8135 35.9902C43.1709 37.0742 43.8496 38.5635 43.8496 40.458C43.8496 41.376 43.5664 42.2451 43 43.0654C42.4434 43.876 41.6279 44.5352 40.5537 45.043C41.6865 45.4531 42.5752 46.0781 43.2197 46.918C43.8643 47.748 44.1865 48.7783 44.1865 50.0088C44.1865 51.9131 43.4541 53.4365 41.9893 54.5791C40.5244 55.7217 38.6006 56.293 36.2178 56.293C34.8213 56.293 33.5225 56.0293 32.3213 55.502C31.1299 54.9648 30.2266 54.2275 29.6113 53.29C28.9961 52.3428 28.6885 51.2686 28.6885 50.0674H33.6543C33.6543 50.7217 33.918 51.2881 34.4453 51.7666C34.9727 52.2451 35.6221 52.4844 36.3936 52.4844C37.2627 52.4844 37.9561 52.2451 38.4736 51.7666C38.9912 51.2783 39.25 50.6582 39.25 49.9062C39.25 48.832 38.9814 48.0703 38.4443 47.6211C37.9072 47.1719 37.165 46.9473 36.2178 46.9473H33.8154V43.2705ZM61.4863 47.2842C61.4863 50.165 60.8369 52.3867 59.5381 53.9492C58.249 55.5117 56.4277 56.293 54.0742 56.293C51.7012 56.293 49.8652 55.5068 48.5664 53.9346C47.2676 52.3623 46.6182 50.1455 46.6182 47.2842V43.3877C46.6182 40.5068 47.2627 38.2852 48.5518 36.7227C49.8506 35.1602 51.6816 34.3789 54.0449 34.3789C56.4082 34.3789 58.2393 35.165 59.5381 36.7373C60.8369 38.3096 61.4863 40.5312 61.4863 43.4023V47.2842ZM56.5498 42.7578C56.5498 41.2246 56.3496 40.082 55.9492 39.3301C55.5488 38.5684 54.9141 38.1875 54.0449 38.1875C53.1953 38.1875 52.5752 38.5391 52.1846 39.2422C51.8037 39.9453 51.5986 41.0098 51.5693 42.4355V47.8848C51.5693 49.4766 51.7695 50.6436 52.1699 51.3857C52.5703 52.1182 53.2051 52.4844 54.0742 52.4844C54.9141 52.4844 55.5342 52.1279 55.9346 51.415C56.335 50.6924 56.54 49.5645 56.5498 48.0312V42.7578Z" fill="white"/>
<rect x="0.5" y="0.5" width="89" height="89" rx="4.5" stroke="white" stroke-opacity="0.5"/>
</svg>
