<svg width="90" height="90" viewBox="0 0 90 90" fill="none" xmlns="http://www.w3.org/2000/svg">
<path d="M36.4565 76V65.9619H40.3716C41.7075 65.9619 42.7311 66.1969 43.4424 66.667C44.1598 67.1309 44.5186 67.8143 44.5186 68.7173C44.5186 69.1812 44.3794 69.6017 44.1011 69.979C43.8228 70.3501 43.4115 70.6346 42.8672 70.8325C43.4733 70.9748 43.9588 71.2531 44.3237 71.6675C44.6948 72.0819 44.8804 72.5767 44.8804 73.1519C44.8804 74.0734 44.5402 74.7785 43.8599 75.2671C43.1857 75.7557 42.2301 76 40.9932 76H36.4565ZM38.1729 71.5933V74.6177H41.0117C41.7292 74.6177 42.2642 74.4847 42.6167 74.2188C42.9754 73.9528 43.1548 73.5786 43.1548 73.0962C43.1548 72.0942 42.4188 71.5933 40.9468 71.5933H38.1729ZM38.1729 70.2202H40.3901C41.9982 70.2202 42.8022 69.7502 42.8022 68.8101C42.8022 67.87 42.0415 67.3844 40.52 67.3535H38.1729V70.2202ZM51.1797 74.7847C51.792 74.7847 52.327 74.5991 52.7847 74.228C53.2424 73.8569 53.4959 73.3931 53.5454 72.8364H55.1689C55.138 73.4116 54.9401 73.959 54.5752 74.4785C54.2103 74.998 53.7217 75.4124 53.1094 75.7217C52.5033 76.0309 51.86 76.1855 51.1797 76.1855C49.8128 76.1855 48.7243 75.731 47.9141 74.8218C47.11 73.9064 46.708 72.6571 46.708 71.0737V70.7861C46.708 69.8089 46.8874 68.9399 47.2461 68.1792C47.6048 67.4185 48.1182 66.8278 48.7861 66.4072C49.4603 65.9867 50.255 65.7764 51.1704 65.7764C52.2961 65.7764 53.23 66.1134 53.9722 66.7876C54.7205 67.4618 55.1195 68.3369 55.1689 69.4131H53.5454C53.4959 68.7637 53.2485 68.2318 52.8032 67.8174C52.3641 67.3968 51.8198 67.1865 51.1704 67.1865C50.2983 67.1865 49.6211 67.502 49.1387 68.1328C48.6624 68.7575 48.4243 69.6636 48.4243 70.8511V71.1758C48.4243 72.3324 48.6624 73.223 49.1387 73.8477C49.6149 74.4723 50.2952 74.7847 51.1797 74.7847Z" fill="white"/>
<path d="M36.6016 21.0312H31.8359L30.7656 24H29.2188L33.5625 12.625H34.875L39.2266 24H37.6875L36.6016 21.0312ZM32.2891 19.7969H36.1562L34.2188 14.4766L32.2891 19.7969ZM49.4453 24H47.9375V13.8594H42.3281V24H40.8281V12.625H49.4453V24ZM53.6797 19.5469V24H52.1797V12.625H56.375C57.6198 12.625 58.5938 12.9427 59.2969 13.5781C60.0052 14.2135 60.3594 15.0547 60.3594 16.1016C60.3594 17.2057 60.013 18.0573 59.3203 18.6562C58.6328 19.25 57.6458 19.5469 56.3594 19.5469H53.6797ZM53.6797 18.3203H56.375C57.1771 18.3203 57.7917 18.1328 58.2188 17.7578C58.6458 17.3776 58.8594 16.8307 58.8594 16.1172C58.8594 15.4401 58.6458 14.8984 58.2188 14.4922C57.7917 14.0859 57.2057 13.875 56.4609 13.8594H53.6797V18.3203Z" fill="white"/>
<path d="M44.1865 56H29.3037V52.7773L36.1592 45.5703C37.8486 43.6465 38.6934 42.1182 38.6934 40.9854C38.6934 40.0674 38.4932 39.3691 38.0928 38.8906C37.6924 38.4121 37.1113 38.1729 36.3496 38.1729C35.5977 38.1729 34.9873 38.4951 34.5186 39.1396C34.0498 39.7744 33.8154 40.5703 33.8154 41.5273H28.8643C28.8643 40.2188 29.1914 39.0127 29.8457 37.9092C30.5 36.7959 31.4082 35.9268 32.5703 35.3018C33.7324 34.6768 35.0312 34.3643 36.4668 34.3643C38.7715 34.3643 40.5439 34.8965 41.7842 35.9609C43.0342 37.0254 43.6592 38.5537 43.6592 40.5459C43.6592 41.3857 43.5029 42.2061 43.1904 43.0068C42.8779 43.7979 42.3896 44.6328 41.7256 45.5117C41.0713 46.3809 40.0117 47.5479 38.5469 49.0127L35.793 52.1914H44.1865V56ZM56.4033 47.7529C55.3389 48.71 54.1475 49.1885 52.8291 49.1885C50.8955 49.1885 49.3623 48.5342 48.2295 47.2256C47.0967 45.917 46.5303 44.1689 46.5303 41.9814C46.5303 40.6143 46.8477 39.3447 47.4824 38.1729C48.1172 37.001 49.0059 36.0732 50.1484 35.3896C51.3008 34.7061 52.5703 34.3643 53.957 34.3643C55.3633 34.3643 56.6328 34.7207 57.7656 35.4336C58.9082 36.1367 59.7969 37.1377 60.4316 38.4365C61.0664 39.7256 61.3936 41.2148 61.4131 42.9043V44.7939C61.4131 47.1475 60.9492 49.1885 60.0215 50.917C59.1035 52.6455 57.79 53.9736 56.0811 54.9014C54.3721 55.8291 52.3799 56.293 50.1045 56.293H49.7969V52.3379L50.7344 52.3232C54.1328 52.1572 56.0225 50.6338 56.4033 47.7529ZM54.1621 45.6289C55.2363 45.6289 56.0078 45.165 56.4766 44.2373V42.1865C56.4766 40.8193 56.2471 39.8086 55.7881 39.1543C55.3291 38.5 54.709 38.1729 53.9277 38.1729C53.2344 38.1729 52.6533 38.5439 52.1846 39.2861C51.7158 40.0283 51.4814 40.9268 51.4814 41.9814C51.4814 43.0947 51.7207 43.9834 52.1992 44.6475C52.6777 45.3018 53.332 45.6289 54.1621 45.6289Z" fill="white"/>
<rect x="0.5" y="0.5" width="89" height="89" rx="4.5" stroke="white" stroke-opacity="0.5"/>
</svg>
