<svg width="90" height="90" viewBox="0 0 90 90" fill="none" xmlns="http://www.w3.org/2000/svg">
<path d="M44.5093 76H42.793V67.3813H38.1729V76H36.4473V65.9619H44.5093V76ZM54.7236 67.3535H51.356V76H49.6396V67.3535H46.3369V65.9619H54.7236V67.3535Z" fill="white"/>
<path d="M36.6016 21.0312H31.8359L30.7656 24H29.2188L33.5625 12.625H34.875L39.2266 24H37.6875L36.6016 21.0312ZM32.2891 19.7969H36.1562L34.2188 14.4766L32.2891 19.7969ZM49.4453 24H47.9375V13.8594H42.3281V24H40.8281V12.625H49.4453V24ZM53.6797 19.5469V24H52.1797V12.625H56.375C57.6198 12.625 58.5938 12.9427 59.2969 13.5781C60.0052 14.2135 60.3594 15.0547 60.3594 16.1016C60.3594 17.2057 60.013 18.0573 59.3203 18.6562C58.6328 19.25 57.6458 19.5469 56.3594 19.5469H53.6797ZM53.6797 18.3203H56.375C57.1771 18.3203 57.7917 18.1328 58.2188 17.7578C58.6458 17.3776 58.8594 16.8307 58.8594 16.1172C58.8594 15.4401 58.6458 14.8984 58.2188 14.4922C57.7917 14.0859 57.2057 13.875 56.4609 13.8594H53.6797V18.3203Z" fill="white"/>
<path d="M44.1865 56H29.3037V52.7773L36.1592 45.5703C37.8486 43.6465 38.6934 42.1182 38.6934 40.9854C38.6934 40.0674 38.4932 39.3691 38.0928 38.8906C37.6924 38.4121 37.1113 38.1729 36.3496 38.1729C35.5977 38.1729 34.9873 38.4951 34.5186 39.1396C34.0498 39.7744 33.8154 40.5703 33.8154 41.5273H28.8643C28.8643 40.2188 29.1914 39.0127 29.8457 37.9092C30.5 36.7959 31.4082 35.9268 32.5703 35.3018C33.7324 34.6768 35.0312 34.3643 36.4668 34.3643C38.7715 34.3643 40.5439 34.8965 41.7842 35.9609C43.0342 37.0254 43.6592 38.5537 43.6592 40.5459C43.6592 41.3857 43.5029 42.2061 43.1904 43.0068C42.8779 43.7979 42.3896 44.6328 41.7256 45.5117C41.0713 46.3809 40.0117 47.5479 38.5469 49.0127L35.793 52.1914H44.1865V56ZM61.501 37.3086L53.5322 56H48.3174L56.3008 38.4805H46.1348V34.6719H61.501V37.3086Z" fill="white"/>
<rect x="0.5" y="0.5" width="89" height="89" rx="4.5" stroke="white" stroke-opacity="0.5"/>
</svg>
